<svg xmlns="http://www.w3.org/2000/svg" viewBox="0 0 480 210" fill="currentColor">
  <!-- Citadel mark — scaled 1.25×, centered in 480px wide canvas -->
  <g transform="translate(140, 6) scale(1.25)">
    <path fill-rule="evenodd" d="
      M26,62 h12 v22 h-12 Z
      M42,50 h12 v34 h-12 Z
      M58,34 h12 v50 h-12 Z
      M74,18 h12 v66 h-12 Z
      M90,34 h12 v50 h-12 Z
      M106,50 h12 v34 h-12 Z
      M122,62 h12 v22 h-12 Z
      M26,85 h108 v1.5 h-108 Z
      M77,84 L77,54 C77,38 79,28 80,28 C81,28 83,38 83,54 L83,84 Z
    "/>
    <rect x="19" y="70" width="2" height="14"/>
    <circle cx="20" cy="68.5" r="1.5"/>
    <rect x="13" y="74" width="2" height="10"/>
    <circle cx="14" cy="72.5" r="1.5"/>
    <rect x="7" y="77" width="2" height="7"/>
    <circle cx="8" cy="75.5" r="1.5"/>
    <rect x="139" y="70" width="2" height="14"/>
    <circle cx="140" cy="68.5" r="1.5"/>
    <rect x="145" y="74" width="2" height="10"/>
    <circle cx="146" cy="72.5" r="1.5"/>
    <rect x="151" y="77" width="2" height="7"/>
    <circle cx="152" cy="75.5" r="1.5"/>
  </g>

  <!-- Wordmark -->
  <text
    x="240"
    y="165"
    text-anchor="middle"
    font-family="Georgia, 'Times New Roman', serif"
    font-size="28"
    font-weight="700"
    letter-spacing="4"
  >COGNITIVE EMPIRE</text>

  <!-- Tagline -->
  <text
    x="240"
    y="193"
    text-anchor="middle"
    font-family="Georgia, 'Times New Roman', serif"
    font-size="10"
    font-weight="400"
    letter-spacing="3.5"
  >INTELLIGENCE. STRUCTURE. EXECUTION.</text>
</svg>
